<svg width="1017" height="564" xmlns="http://www.w3.org/2000/svg" xml:space="preserve" version="1.1" viewBox="397.87 -43.82 1017 564">
<desc>Created with Fabric.js 5.2.4</desc>
<rect x="0" y="0" width="100%" height="100%" fill="transparent"></rect>
<g transform="matrix(Infinity NaN NaN Infinity 0 0)" id="e9464da7-0154-40cf-8a8e-f51f56347a30"  >
</g>
<g transform="matrix(1 0 0 1 740.5 282)" id="ad819fc7-b985-463b-87e9-183f65bf8574"  >
<rect style="stroke: none; stroke-width: 1; stroke-dasharray: none; stroke-linecap: butt; stroke-dashoffset: 0; stroke-linejoin: miter; stroke-miterlimit: 4; fill: rgb(255,255,255); fill-rule: nonzero; opacity: 1; visibility: hidden;" vector-effect="non-scaling-stroke"  x="-740.5" y="-282" rx="0" ry="0" width="1017" height="564" />
</g>
<g transform="matrix(4.41 0 0 4.41 1139.22 237.09)"  >
<g style="" vector-effect="non-scaling-stroke"   >
		<g transform="matrix(1 0 0 1 0 0)" id="svg_140"  >
<rect style="stroke: none; stroke-width: 1; stroke-dasharray: none; stroke-linecap: butt; stroke-dashoffset: 0; stroke-linejoin: miter; stroke-miterlimit: 4; fill: rgb(255,206,0); fill-rule: evenodd; opacity: 1;" vector-effect="non-scaling-stroke"  x="-168.43" y="-64.2" rx="0" ry="0" width="336.86" height="128.4" />
</g>
		<g transform="matrix(1 0 0 1 51.92 8.23)" id="svg_142"  >
<rect style="stroke: none; stroke-width: 1; stroke-dasharray: none; stroke-linecap: butt; stroke-dashoffset: 0; stroke-linejoin: miter; stroke-miterlimit: 4; fill: none; fill-rule: evenodd; opacity: 1;" vector-effect="non-scaling-stroke"  x="-96.225" y="-24.985" rx="0" ry="0" width="192.45" height="49.97" />
</g>
		<g transform="matrix(1 0 0 1 -38.12 -10.05)"  >
<path style="stroke: none; stroke-width: 1; stroke-dasharray: none; stroke-linecap: butt; stroke-dashoffset: 0; stroke-linejoin: miter; stroke-miterlimit: 4; fill: rgb(33,25,21); fill-rule: nonzero; opacity: 1;" vector-effect="non-scaling-stroke"  transform=" translate(-242.04, -60.73)" d="M 141.613 55.431 L 143.053 55.431 L 143.053 66.038 L 141.504 66.038 L 141.504 57.785 L 138.195 61.885 L 137.91 61.885 L 134.56199999999998 57.785 L 134.56199999999998 66.038 L 133.021 66.038 L 133.021 55.431 L 134.47899999999998 55.431 L 138.05599999999998 59.787 L 141.61299999999997 55.431 z" stroke-linecap="round" />
</g>
		<g transform="matrix(1 0 0 1 -30.01 -10.05)"  >
<path style="stroke: none; stroke-width: 1; stroke-dasharray: none; stroke-linecap: butt; stroke-dashoffset: 0; stroke-linejoin: miter; stroke-miterlimit: 4; fill: rgb(33,25,21); fill-rule: nonzero; opacity: 1;" vector-effect="non-scaling-stroke"  transform=" translate(-250.16, -60.73)" d="M 145.389 55.431 L 146.93 55.431 L 146.93 66.038 L 145.389 66.038 L 145.389 55.431 z" stroke-linecap="round" />
</g>
		<g transform="matrix(1 0 0 1 -21.82 -10.05)"  >
<path style="stroke: none; stroke-width: 1; stroke-dasharray: none; stroke-linecap: butt; stroke-dashoffset: 0; stroke-linejoin: miter; stroke-miterlimit: 4; fill: rgb(33,25,21); fill-rule: nonzero; opacity: 1;" vector-effect="non-scaling-stroke"  transform=" translate(-258.35, -60.73)" d="M 157.871 55.431 L 159.335 55.431 L 159.335 66.038 L 158.01000000000002 66.038 L 150.81400000000002 57.869 L 150.81400000000002 66.038 L 149.365 66.038 L 149.365 55.431 L 150.614 55.431 L 157.872 63.669 L 157.872 55.431 L 157.871 55.431 z" stroke-linecap="round" />
</g>
		<g transform="matrix(1 0 0 1 -13.74 -10.05)"  >
<path style="stroke: none; stroke-width: 1; stroke-dasharray: none; stroke-linecap: butt; stroke-dashoffset: 0; stroke-linejoin: miter; stroke-miterlimit: 4; fill: rgb(33,25,21); fill-rule: nonzero; opacity: 1;" vector-effect="non-scaling-stroke"  transform=" translate(-266.42, -60.73)" d="M 161.654 55.431 L 163.195 55.431 L 163.195 66.038 L 161.654 66.038 L 161.654 55.431 z" stroke-linecap="round" />
</g>
		<g transform="matrix(1 0 0 1 -8.08 -10.06)"  >
<path style="stroke: none; stroke-width: 1; stroke-dasharray: none; stroke-linecap: butt; stroke-dashoffset: 0; stroke-linejoin: miter; stroke-miterlimit: 4; fill: rgb(33,25,21); fill-rule: nonzero; opacity: 1;" vector-effect="non-scaling-stroke"  transform=" translate(-272.08, -60.73)" d="M 168.25 61.594 L 167.079 60.893 C 166.344 60.451 165.821 60.016 165.511 59.588 C 165.201 59.160000000000004 165.045 58.668 165.045 58.111000000000004 C 165.045 57.276 165.339 56.597 165.927 56.07600000000001 C 166.515 55.55500000000001 167.28 55.29400000000001 168.219 55.29400000000001 C 169.118 55.29400000000001 169.94299999999998 55.54300000000001 170.69299999999998 56.04000000000001 L 170.69299999999998 57.76300000000001 C 169.91799999999998 57.02800000000001 169.08299999999997 56.66000000000001 168.189 56.66000000000001 C 167.685 56.66000000000001 167.272 56.77500000000001 166.94899999999998 57.00400000000001 C 166.62499999999997 57.23300000000001 166.46399999999997 57.527000000000015 166.46399999999997 57.88500000000001 C 166.46399999999997 58.20300000000001 166.58299999999997 58.500000000000014 166.82099999999997 58.77800000000001 C 167.05899999999997 59.05600000000001 167.44199999999998 59.34600000000001 167.96999999999997 59.652000000000015 L 169.14699999999996 60.338000000000015 C 170.45999999999995 61.11100000000002 171.11699999999996 62.094000000000015 171.11699999999996 63.289000000000016 C 171.11699999999996 64.13900000000001 170.82799999999997 64.83100000000002 170.25099999999995 65.36200000000001 C 169.67299999999994 65.894 168.92099999999994 66.159 167.99699999999996 66.159 C 166.93399999999997 66.159 165.96499999999995 65.837 165.09199999999996 65.19300000000001 L 165.09199999999996 63.26400000000001 C 165.92399999999995 64.30300000000001 166.88699999999994 64.82300000000001 167.98199999999994 64.82300000000001 C 168.46399999999994 64.82300000000001 168.86699999999993 64.691 169.18799999999993 64.426 C 169.50799999999992 64.161 169.66899999999993 63.829 169.66899999999993 63.431000000000004 C 169.66799999999992 62.786 169.19499999999994 62.173 168.24999999999991 61.594 z" stroke-linecap="round" />
</g>
		<g transform="matrix(1 0 0 1 0.23 -10.06)"  >
<path style="stroke: none; stroke-width: 1; stroke-dasharray: none; stroke-linecap: butt; stroke-dashoffset: 0; stroke-linejoin: miter; stroke-miterlimit: 4; fill: rgb(33,25,21); fill-rule: nonzero; opacity: 1;" vector-effect="non-scaling-stroke"  transform=" translate(-280.39, -60.73)" d="M 171.895 55.416 L 180.887 55.416 L 180.887 56.766999999999996 L 177.13400000000001 56.766999999999996 L 177.13400000000001 66.038 L 175.586 66.038 L 175.586 56.766999999999996 L 171.895 56.766999999999996 L 171.895 55.416 z" stroke-linecap="round" />
</g>
		<g transform="matrix(1 0 0 1 9.3 -10.05)"  >
<path style="stroke: none; stroke-width: 1; stroke-dasharray: none; stroke-linecap: butt; stroke-dashoffset: 0; stroke-linejoin: miter; stroke-miterlimit: 4; fill: rgb(33,25,21); fill-rule: nonzero; opacity: 1;" vector-effect="non-scaling-stroke"  transform=" translate(-289.47, -60.73)" d="M 182.343 55.431 L 188.446 55.431 L 188.446 56.782999999999994 L 183.884 56.782999999999994 L 183.884 60.016999999999996 L 188.291 60.016999999999996 L 188.291 61.376 L 183.884 61.376 L 183.884 64.67099999999999 L 188.59199999999998 64.67099999999999 L 188.59199999999998 66.023 L 182.343 66.023 L 182.343 55.431 z" stroke-linecap="round" />
</g>
		<g transform="matrix(1 0 0 1 18.26 -10.05)"  >
<path style="stroke: none; stroke-width: 1; stroke-dasharray: none; stroke-linecap: butt; stroke-dashoffset: 0; stroke-linejoin: miter; stroke-miterlimit: 4; fill: rgb(33,25,21); fill-rule: nonzero; opacity: 1;" vector-effect="non-scaling-stroke"  transform=" translate(-298.43, -60.73)" d="M 190.278 66.038 L 190.278 55.431 L 192.975 55.431 C 194.064 55.431 194.928 55.696999999999996 195.56799999999998 56.227999999999994 C 196.20799999999997 56.75999999999999 196.527 57.477999999999994 196.527 58.38499999999999 C 196.527 59.00199999999999 196.37099999999998 59.535999999999994 196.057 59.98699999999999 C 195.744 60.43699999999999 195.29399999999998 60.77399999999999 194.708 60.996999999999986 C 195.053 61.219999999999985 195.389 61.52299999999999 195.718 61.90799999999999 C 196.046 62.292999999999985 196.509 62.96299999999999 197.105 63.91999999999999 C 197.48 64.52199999999999 197.78099999999998 64.975 198.006 65.27899999999998 L 198.576 66.03799999999998 L 196.742 66.03799999999998 L 196.273 65.33899999999998 C 196.257 65.31399999999998 196.226 65.27099999999999 196.18 65.20999999999998 L 195.88 64.79199999999997 L 195.402 64.01799999999997 L 194.886 63.18999999999997 C 194.56799999999998 62.75399999999997 194.277 62.40799999999997 194.012 62.14999999999997 C 193.747 61.89199999999997 193.508 61.70699999999997 193.294 61.59299999999997 C 193.08100000000002 61.47899999999997 192.722 61.422999999999966 192.21800000000002 61.422999999999966 L 191.817 61.422999999999966 L 191.817 66.03899999999996 L 190.27800000000002 66.03899999999996 L 190.27800000000002 66.03799999999995 z M 192.28199999999998 56.721999999999994 L 191.819 56.721999999999994 L 191.819 60.071 L 192.405 60.071 C 193.186 60.071 193.721 60.004999999999995 194.011 59.873 C 194.301 59.742 194.528 59.543 194.689 59.277 C 194.851 59.011 194.932 58.709 194.932 58.369 C 194.932 58.035 194.84199999999998 57.733 194.66199999999998 57.462 C 194.48199999999997 57.191 194.22899999999998 57 193.903 56.889 C 193.577 56.778000000000006 193.03699999999998 56.722 192.28199999999998 56.722 z" stroke-linecap="round" />
</g>
		<g transform="matrix(1 0 0 1 24.38 -10.05)"  >
<path style="stroke: none; stroke-width: 1; stroke-dasharray: none; stroke-linecap: butt; stroke-dashoffset: 0; stroke-linejoin: miter; stroke-miterlimit: 4; fill: rgb(33,25,21); fill-rule: nonzero; opacity: 1;" vector-effect="non-scaling-stroke"  transform=" translate(-304.55, -60.73)" d="M 199.779 55.431 L 201.32 55.431 L 201.32 66.038 L 199.779 66.038 L 199.779 55.431 z" stroke-linecap="round" />
</g>
		<g transform="matrix(1 0 0 1 32.85 -10.07)"  >
<path style="stroke: none; stroke-width: 1; stroke-dasharray: none; stroke-linecap: butt; stroke-dashoffset: 0; stroke-linejoin: miter; stroke-miterlimit: 4; fill: rgb(33,25,21); fill-rule: nonzero; opacity: 1;" vector-effect="non-scaling-stroke"  transform=" translate(-313.02, -60.72)" d="M 208.991 55.279 C 210.65400000000002 55.279 212.03900000000002 55.798 213.145 56.835 C 214.25 57.873 214.804 59.174 214.804 60.738 C 214.804 62.302 214.245 63.597 213.129 64.622 C 212.012 65.647 210.605 66.16 208.905 66.16 C 207.283 66.16 205.931 65.64699999999999 204.851 64.622 C 203.77 63.597 203.23 62.312 203.23 60.768 C 203.23 59.184 203.774 57.873 204.862 56.835 C 205.952 55.798 207.328 55.279 208.99099999999999 55.279 z M 209.05300000000003 56.722 C 207.82200000000003 56.722 206.80900000000003 57.102000000000004 206.01600000000002 57.861000000000004 C 205.223 58.620000000000005 204.82700000000003 59.59 204.82700000000003 60.769000000000005 C 204.82700000000003 61.913000000000004 205.22400000000002 62.86500000000001 206.02000000000004 63.624 C 206.81600000000006 64.383 207.81100000000004 64.763 209.00700000000003 64.763 C 210.20700000000002 64.763 211.20900000000003 64.376 212.01300000000003 63.601000000000006 C 212.81600000000003 62.827000000000005 213.21700000000004 61.86200000000001 213.21700000000004 60.708000000000006 C 213.21700000000004 59.584 212.81600000000003 58.639 212.01300000000003 57.87200000000001 C 211.20900000000003 57.105000000000004 210.22300000000004 56.72200000000001 209.05300000000003 56.72200000000001 z" stroke-linecap="round" />
</g>
		<g transform="matrix(1 0 0 1 -38.15 6.66)"  >
<path style="stroke: none; stroke-width: 1; stroke-dasharray: none; stroke-linecap: butt; stroke-dashoffset: 0; stroke-linejoin: miter; stroke-miterlimit: 4; fill: rgb(33,25,21); fill-rule: nonzero; opacity: 1;" vector-effect="non-scaling-stroke"  transform=" translate(-242.01, -77.44)" d="M 133.068 82.732 L 133.068 72.14 L 136.697 72.14 C 138.161 72.14 139.31900000000002 72.356 140.173 72.789 C 141.026 73.22200000000001 141.703 73.858 142.206 74.699 C 142.70999999999998 75.539 142.962 76.455 142.962 77.448 C 142.962 78.157 142.82299999999998 78.835 142.546 79.48299999999999 C 142.269 80.13099999999999 141.873 80.701 141.35899999999998 81.19099999999999 C 140.83499999999998 81.69699999999999 140.22599999999997 82.07999999999998 139.533 82.33699999999999 C 139.12699999999998 82.49399999999999 138.755 82.59899999999999 138.416 82.65199999999999 C 138.076 82.70499999999998 137.43 82.73199999999999 136.474 82.73199999999999 L 133.06799999999998 82.73199999999999 z M 136.53500000000003 73.492 L 134.60900000000004 73.492 L 134.60900000000004 81.381 L 136.58200000000005 81.381 C 137.35300000000004 81.381 137.95000000000005 81.329 138.37700000000004 81.225 C 138.80400000000003 81.121 139.15900000000005 80.99 139.44400000000005 80.83 C 139.72900000000004 80.67 139.99000000000004 80.474 140.22600000000006 80.241 C 140.98600000000005 79.482 141.36600000000004 78.523 141.36600000000004 77.364 C 141.36600000000004 76.22500000000001 140.97600000000006 75.296 140.19500000000005 74.577 C 139.90800000000004 74.309 139.57800000000006 74.089 139.20500000000004 73.916 C 138.83300000000003 73.744 138.47900000000004 73.63 138.14500000000004 73.575 C 137.81100000000004 73.52000000000001 137.27500000000003 73.492 136.53500000000003 73.492 z" stroke-linecap="round" />
</g>
		<g transform="matrix(1 0 0 1 -28.16 6.66)"  >
<path style="stroke: none; stroke-width: 1; stroke-dasharray: none; stroke-linecap: butt; stroke-dashoffset: 0; stroke-linejoin: miter; stroke-miterlimit: 4; fill: rgb(33,25,21); fill-rule: nonzero; opacity: 1;" vector-effect="non-scaling-stroke"  transform=" translate(-252.01, -77.44)" d="M 144.888 72.14 L 150.991 72.14 L 150.991 73.492 L 146.429 73.492 L 146.429 76.726 L 150.836 76.726 L 150.836 78.085 L 146.429 78.085 L 146.429 81.38 L 151.137 81.38 L 151.137 82.732 L 144.888 82.732 L 144.888 72.14 z" stroke-linecap="round" />
</g>
		<g transform="matrix(1 0 0 1 -14.57 6.65)"  >
<path style="stroke: none; stroke-width: 1; stroke-dasharray: none; stroke-linecap: butt; stroke-dashoffset: 0; stroke-linejoin: miter; stroke-miterlimit: 4; fill: rgb(33,25,21); fill-rule: nonzero; opacity: 1;" vector-effect="non-scaling-stroke"  transform=" translate(-265.59, -77.44)" d="M 166.438 80.287 L 166.438 81.95700000000001 C 165.307 82.56400000000001 164.00199999999998 82.86800000000001 162.524 82.86800000000001 C 161.322 82.86800000000001 160.302 82.63000000000001 159.464 82.15400000000001 C 158.627 81.67800000000001 157.964 81.02300000000001 157.477 80.18800000000002 C 156.989 79.35300000000002 156.745 78.44900000000001 156.745 77.47700000000002 C 156.745 75.93400000000001 157.304 74.63500000000002 158.421 73.58200000000002 C 159.53799999999998 72.52900000000002 160.916 72.00300000000003 162.555 72.00300000000003 C 163.685 72.00300000000003 164.941 72.29400000000003 166.323 72.87600000000003 L 166.323 74.50800000000004 C 165.065 73.80000000000004 163.835 73.44500000000004 162.633 73.44500000000004 C 161.401 73.44500000000004 160.376 73.82900000000004 159.56300000000002 74.59500000000004 C 158.74900000000002 75.36200000000004 158.341 76.32300000000004 158.341 77.47600000000004 C 158.341 78.64100000000005 158.74200000000002 79.59700000000004 159.543 80.34600000000005 C 160.345 81.09600000000005 161.369 81.47000000000004 162.61700000000002 81.47000000000004 C 163.92100000000002 81.47200000000004 165.19500000000002 81.07700000000004 166.43800000000002 80.28700000000003 z" stroke-linecap="round" />
</g>
		<g transform="matrix(1 0 0 1 -7.05 6.66)"  >
<path style="stroke: none; stroke-width: 1; stroke-dasharray: none; stroke-linecap: butt; stroke-dashoffset: 0; stroke-linejoin: miter; stroke-miterlimit: 4; fill: rgb(33,25,21); fill-rule: nonzero; opacity: 1;" vector-effect="non-scaling-stroke"  transform=" translate(-273.12, -77.44)" d="M 168.35 72.14 L 169.891 72.14 L 169.891 82.747 L 168.35 82.747 L 168.35 72.14 z" stroke-linecap="round" />
</g>
		<g transform="matrix(1 0 0 1 -0.77 6.66)"  >
<path style="stroke: none; stroke-width: 1; stroke-dasharray: none; stroke-linecap: butt; stroke-dashoffset: 0; stroke-linejoin: miter; stroke-miterlimit: 4; fill: rgb(33,25,21); fill-rule: nonzero; opacity: 1;" vector-effect="non-scaling-stroke"  transform=" translate(-279.4, -77.44)" d="M 172.279 72.14 L 178.382 72.14 L 178.382 73.492 L 173.82 73.492 L 173.82 76.726 L 178.227 76.726 L 178.227 78.085 L 173.82 78.085 L 173.82 81.38 L 178.528 81.38 L 178.528 82.732 L 172.279 82.732 L 172.279 72.14 z" stroke-linecap="round" />
</g>
		<g transform="matrix(1 0 0 1 9.04 6.66)"  >
<path style="stroke: none; stroke-width: 1; stroke-dasharray: none; stroke-linecap: butt; stroke-dashoffset: 0; stroke-linejoin: miter; stroke-miterlimit: 4; fill: rgb(33,25,21); fill-rule: nonzero; opacity: 1;" vector-effect="non-scaling-stroke"  transform=" translate(-289.2, -77.44)" d="M 188.722 72.14 L 190.186 72.14 L 190.186 82.747 L 188.86100000000002 82.747 L 181.66500000000002 74.578 L 181.66500000000002 82.747 L 180.216 82.747 L 180.216 72.14 L 181.465 72.14 L 188.723 80.378 L 188.723 72.14 L 188.722 72.14 z" stroke-linecap="round" />
</g>
		<g transform="matrix(1 0 0 1 20.76 6.65)"  >
<path style="stroke: none; stroke-width: 1; stroke-dasharray: none; stroke-linecap: butt; stroke-dashoffset: 0; stroke-linejoin: miter; stroke-miterlimit: 4; fill: rgb(33,25,21); fill-rule: nonzero; opacity: 1;" vector-effect="non-scaling-stroke"  transform=" translate(-300.92, -77.44)" d="M 201.767 80.287 L 201.767 81.95700000000001 C 200.636 82.56400000000001 199.331 82.86800000000001 197.853 82.86800000000001 C 196.651 82.86800000000001 195.631 82.63000000000001 194.793 82.15400000000001 C 193.95600000000002 81.67800000000001 193.293 81.02300000000001 192.806 80.18800000000002 C 192.318 79.35300000000002 192.074 78.44900000000001 192.074 77.47700000000002 C 192.074 75.93400000000001 192.633 74.63500000000002 193.75 73.58200000000002 C 194.867 72.52900000000002 196.245 72.00300000000003 197.88400000000001 72.00300000000003 C 199.014 72.00300000000003 200.27 72.29400000000003 201.65200000000002 72.87600000000003 L 201.65200000000002 74.50800000000004 C 200.394 73.80000000000004 199.16400000000002 73.44500000000004 197.96200000000002 73.44500000000004 C 196.73000000000002 73.44500000000004 195.705 73.82900000000004 194.89200000000002 74.59500000000004 C 194.07800000000003 75.36200000000004 193.67000000000002 76.32300000000004 193.67000000000002 77.47600000000004 C 193.67000000000002 78.64100000000005 194.07100000000003 79.59700000000004 194.872 80.34600000000005 C 195.674 81.09600000000005 196.698 81.47000000000004 197.94600000000003 81.47000000000004 C 199.24900000000002 81.47200000000004 200.52300000000002 81.07700000000004 201.76700000000002 80.28700000000003 z" stroke-linecap="round" />
</g>
		<g transform="matrix(1 0 0 1 28.28 6.66)"  >
<path style="stroke: none; stroke-width: 1; stroke-dasharray: none; stroke-linecap: butt; stroke-dashoffset: 0; stroke-linejoin: miter; stroke-miterlimit: 4; fill: rgb(33,25,21); fill-rule: nonzero; opacity: 1;" vector-effect="non-scaling-stroke"  transform=" translate(-308.45, -77.44)" d="M 203.678 72.14 L 205.219 72.14 L 205.219 82.747 L 203.678 82.747 L 203.678 72.14 z" stroke-linecap="round" />
</g>
		<g transform="matrix(1 0 0 1 35.52 6.62)"  >
<path style="stroke: none; stroke-width: 1; stroke-dasharray: none; stroke-linecap: butt; stroke-dashoffset: 0; stroke-linejoin: miter; stroke-miterlimit: 4; fill: rgb(33,25,21); fill-rule: nonzero; opacity: 1;" vector-effect="non-scaling-stroke"  transform=" translate(-315.69, -77.41)" d="M 211.044 72.079 L 212.127 72.079 L 216.954 82.74699999999999 L 215.377 82.74699999999999 L 213.942 79.60299999999998 L 209.34900000000002 79.60299999999998 L 208.00400000000002 82.74699999999999 L 206.42000000000002 82.74699999999999 L 211.044 72.07899999999998 z M 213.309 78.252 L 211.573 74.41 L 209.96200000000002 78.252 L 213.30900000000003 78.252 z" stroke-linecap="round" />
</g>
		<g transform="matrix(1 0 0 1 42.39 11.88)"  >
<path style="stroke: none; stroke-width: 1; stroke-dasharray: none; stroke-linecap: butt; stroke-dashoffset: 0; stroke-linejoin: miter; stroke-miterlimit: 4; fill: rgb(33,25,21); fill-rule: nonzero; opacity: 1;" vector-effect="non-scaling-stroke"  transform=" translate(-322.56, -82.66)" d="M 217.717 84.584 L 217.717 84.303 C 217.948 84.085 218.11 83.866 218.20200000000003 83.646 C 218.29400000000004 83.426 218.348 83.126 218.36400000000003 82.746 C 217.81900000000005 82.589 217.54700000000003 82.258 217.54700000000003 81.75099999999999 C 217.54700000000003 81.478 217.64100000000002 81.24099999999999 217.82800000000003 81.041 C 218.01600000000002 80.841 218.23800000000003 80.741 218.49500000000003 80.741 C 218.80800000000002 80.741 219.06500000000003 80.878 219.26600000000002 81.151 C 219.466 81.42399999999999 219.567 81.774 219.567 82.199 C 219.567 82.761 219.40200000000002 83.255 219.074 83.67999999999999 C 218.744 84.106 218.292 84.407 217.717 84.58399999999999 z" stroke-linecap="round" />
</g>
		<g transform="matrix(1 0 0 1 49.24 6.66)"  >
<path style="stroke: none; stroke-width: 1; stroke-dasharray: none; stroke-linecap: butt; stroke-dashoffset: 0; stroke-linejoin: miter; stroke-miterlimit: 4; fill: rgb(33,25,21); fill-rule: nonzero; opacity: 1;" vector-effect="non-scaling-stroke"  transform=" translate(-329.41, -77.44)" d="M 224.635 72.14 L 226.176 72.14 L 226.176 82.747 L 224.635 82.747 L 224.635 72.14 z" stroke-linecap="round" />
</g>
		<g transform="matrix(1 0 0 1 57.44 6.66)"  >
<path style="stroke: none; stroke-width: 1; stroke-dasharray: none; stroke-linecap: butt; stroke-dashoffset: 0; stroke-linejoin: miter; stroke-miterlimit: 4; fill: rgb(33,25,21); fill-rule: nonzero; opacity: 1;" vector-effect="non-scaling-stroke"  transform=" translate(-337.6, -77.44)" d="M 237.117 72.14 L 238.581 72.14 L 238.581 82.747 L 237.256 82.747 L 230.06 74.578 L 230.06 82.747 L 228.611 82.747 L 228.611 72.14 L 229.85999999999999 72.14 L 237.118 80.378 L 237.118 72.14 L 237.117 72.14 z" stroke-linecap="round" />
</g>
		<g transform="matrix(1 0 0 1 69.75 6.66)"  >
<path style="stroke: none; stroke-width: 1; stroke-dasharray: none; stroke-linecap: butt; stroke-dashoffset: 0; stroke-linejoin: miter; stroke-miterlimit: 4; fill: rgb(33,25,21); fill-rule: nonzero; opacity: 1;" vector-effect="non-scaling-stroke"  transform=" translate(-349.92, -77.44)" d="M 249.438 72.14 L 250.902 72.14 L 250.902 82.747 L 249.577 82.747 L 242.381 74.578 L 242.381 82.747 L 240.932 82.747 L 240.932 72.14 L 242.18099999999998 72.14 L 249.439 80.378 L 249.439 72.14 L 249.438 72.14 z" stroke-linecap="round" />
</g>
		<g transform="matrix(1 0 0 1 82.35 6.64)"  >
<path style="stroke: none; stroke-width: 1; stroke-dasharray: none; stroke-linecap: butt; stroke-dashoffset: 0; stroke-linejoin: miter; stroke-miterlimit: 4; fill: rgb(33,25,21); fill-rule: nonzero; opacity: 1;" vector-effect="non-scaling-stroke"  transform=" translate(-362.51, -77.43)" d="M 258.487 71.988 C 260.15000000000003 71.988 261.535 72.507 262.641 73.544 C 263.74600000000004 74.582 264.3 75.883 264.3 77.447 C 264.3 79.01100000000001 263.741 80.306 262.625 81.331 C 261.508 82.35600000000001 260.101 82.869 258.401 82.869 C 256.779 82.869 255.42700000000002 82.356 254.347 81.331 C 253.26600000000002 80.306 252.726 79.021 252.726 77.477 C 252.726 75.893 253.27 74.58200000000001 254.358 73.54400000000001 C 255.448 72.507 256.824 71.98800000000001 258.487 71.98800000000001 z M 258.54900000000004 73.431 C 257.31800000000004 73.431 256.305 73.81099999999999 255.51200000000003 74.57 C 254.71900000000005 75.329 254.32300000000004 76.29899999999999 254.32300000000004 77.478 C 254.32300000000004 78.622 254.72000000000003 79.574 255.51600000000005 80.333 C 256.31200000000007 81.092 257.3070000000001 81.472 258.50300000000004 81.472 C 259.70300000000003 81.472 260.70500000000004 81.085 261.509 80.30999999999999 C 262.312 79.53599999999999 262.713 78.57099999999998 262.713 77.41699999999999 C 262.713 76.29299999999999 262.312 75.34799999999998 261.509 74.58099999999999 C 260.70500000000004 73.814 259.719 73.43099999999998 258.54900000000004 73.43099999999998 z" stroke-linecap="round" />
</g>
		<g transform="matrix(1 0 0 1 93.06 6.69)"  >
<path style="stroke: none; stroke-width: 1; stroke-dasharray: none; stroke-linecap: butt; stroke-dashoffset: 0; stroke-linejoin: miter; stroke-miterlimit: 4; fill: rgb(33,25,21); fill-rule: nonzero; opacity: 1;" vector-effect="non-scaling-stroke"  transform=" translate(-373.23, -77.47)" d="M 272.462 72.14 L 273.997 72.14 L 269.446 82.792 L 269.096 82.792 L 264.457 72.14 L 266.008 72.14 L 269.246 79.588 L 272.462 72.13999999999999 z" stroke-linecap="round" />
</g>
		<g transform="matrix(1 0 0 1 102.02 6.62)"  >
<path style="stroke: none; stroke-width: 1; stroke-dasharray: none; stroke-linecap: butt; stroke-dashoffset: 0; stroke-linejoin: miter; stroke-miterlimit: 4; fill: rgb(33,25,21); fill-rule: nonzero; opacity: 1;" vector-effect="non-scaling-stroke"  transform=" translate(-382.18, -77.41)" d="M 277.539 72.079 L 278.622 72.079 L 283.449 82.74699999999999 L 281.872 82.74699999999999 L 280.437 79.60299999999998 L 275.844 79.60299999999998 L 274.49899999999997 82.74699999999999 L 272.91499999999996 82.74699999999999 L 277.539 72.07899999999998 z M 279.804 78.252 L 278.068 74.41 L 276.457 78.252 L 279.804 78.252 z" stroke-linecap="round" />
</g>
		<g transform="matrix(1 0 0 1 112.34 6.65)"  >
<path style="stroke: none; stroke-width: 1; stroke-dasharray: none; stroke-linecap: butt; stroke-dashoffset: 0; stroke-linejoin: miter; stroke-miterlimit: 4; fill: rgb(33,25,21); fill-rule: nonzero; opacity: 1;" vector-effect="non-scaling-stroke"  transform=" translate(-392.51, -77.44)" d="M 293.353 80.287 L 293.353 81.95700000000001 C 292.22200000000004 82.56400000000001 290.91700000000003 82.86800000000001 289.439 82.86800000000001 C 288.237 82.86800000000001 287.21700000000004 82.63000000000001 286.379 82.15400000000001 C 285.54200000000003 81.67800000000001 284.879 81.02300000000001 284.392 80.18800000000002 C 283.904 79.35300000000002 283.65999999999997 78.44900000000001 283.65999999999997 77.47700000000002 C 283.65999999999997 75.93400000000001 284.219 74.63500000000002 285.33599999999996 73.58200000000002 C 286.4529999999999 72.52900000000002 287.83099999999996 72.00300000000003 289.46999999999997 72.00300000000003 C 290.59999999999997 72.00300000000003 291.856 72.29400000000003 293.23799999999994 72.87600000000003 L 293.23799999999994 74.50800000000004 C 291.97999999999996 73.80000000000004 290.74999999999994 73.44500000000004 289.54799999999994 73.44500000000004 C 288.3159999999999 73.44500000000004 287.29099999999994 73.82900000000004 286.47799999999995 74.59500000000004 C 285.66399999999993 75.36200000000004 285.256 76.32300000000004 285.256 77.47600000000004 C 285.256 78.64100000000005 285.657 79.59700000000004 286.45799999999997 80.34600000000005 C 287.26 81.09600000000005 288.284 81.47000000000004 289.532 81.47000000000004 C 290.835 81.47200000000004 292.109 81.07700000000004 293.353 80.28700000000003 z" stroke-linecap="round" />
</g>
		<g transform="matrix(1 0 0 1 119.87 6.66)"  >
<path style="stroke: none; stroke-width: 1; stroke-dasharray: none; stroke-linecap: butt; stroke-dashoffset: 0; stroke-linejoin: miter; stroke-miterlimit: 4; fill: rgb(33,25,21); fill-rule: nonzero; opacity: 1;" vector-effect="non-scaling-stroke"  transform=" translate(-400.03, -77.44)" d="M 295.264 72.14 L 296.805 72.14 L 296.805 82.747 L 295.264 82.747 L 295.264 72.14 z" stroke-linecap="round" />
</g>
		<g transform="matrix(1 0 0 1 128.34 5.19)"  >
<path style="stroke: none; stroke-width: 1; stroke-dasharray: none; stroke-linecap: butt; stroke-dashoffset: 0; stroke-linejoin: miter; stroke-miterlimit: 4; fill: rgb(33,25,21); fill-rule: nonzero; opacity: 1;" vector-effect="non-scaling-stroke"  transform=" translate(-408.5, -75.97)" d="M 304.476 71.988 C 306.139 71.988 307.524 72.507 308.63 73.544 C 309.735 74.582 310.289 75.883 310.289 77.447 C 310.289 79.01100000000001 309.72999999999996 80.306 308.614 81.331 C 307.49699999999996 82.35600000000001 306.09 82.869 304.39 82.869 C 302.768 82.869 301.416 82.356 300.336 81.331 C 299.255 80.306 298.71500000000003 79.021 298.71500000000003 77.477 C 298.71500000000003 75.893 299.259 74.58200000000001 300.34700000000004 73.54400000000001 C 301.437 72.507 302.81300000000005 71.98800000000001 304.47600000000006 71.98800000000001 z M 304.537 73.431 C 303.306 73.431 302.29299999999995 73.81099999999999 301.5 74.57 C 300.70700000000005 75.329 300.311 76.29899999999999 300.311 77.478 C 300.311 78.622 300.70799999999997 79.574 301.50399999999996 80.333 C 302.29999999999995 81.092 303.29499999999996 81.472 304.491 81.472 C 305.691 81.472 306.693 81.085 307.49699999999996 80.30999999999999 C 308.29999999999995 79.53599999999999 308.70099999999996 78.57099999999998 308.70099999999996 77.41699999999999 C 308.70099999999996 76.29299999999999 308.29999999999995 75.34799999999998 307.49699999999996 74.58099999999999 C 306.693 73.814 305.70699999999994 73.43099999999998 304.537 73.43099999999998 z M 306.051 69.08 L 304.31 71.358 L 303.447 71.358 L 304.488 69.08 L 306.051 69.08 z" stroke-linecap="round" />
</g>
		<g transform="matrix(1 0 0 1 141.06 6.66)"  >
<path style="stroke: none; stroke-width: 1; stroke-dasharray: none; stroke-linecap: butt; stroke-dashoffset: 0; stroke-linejoin: miter; stroke-miterlimit: 4; fill: rgb(33,25,21); fill-rule: nonzero; opacity: 1;" vector-effect="non-scaling-stroke"  transform=" translate(-421.22, -77.44)" d="M 320.737 72.14 L 322.201 72.14 L 322.201 82.747 L 320.87600000000003 82.747 L 313.68 74.578 L 313.68 82.747 L 312.231 82.747 L 312.231 72.14 L 313.48 72.14 L 320.738 80.378 L 320.738 72.14 L 320.737 72.14 z" stroke-linecap="round" />
</g>
		<g transform="matrix(1 0 0 1 -39.53 23.36)"  >
<path style="stroke: none; stroke-width: 1; stroke-dasharray: none; stroke-linecap: butt; stroke-dashoffset: 0; stroke-linejoin: miter; stroke-miterlimit: 4; fill: rgb(33,25,21); fill-rule: nonzero; opacity: 1;" vector-effect="non-scaling-stroke"  transform=" translate(-240.63, -94.15)" d="M 139.526 88.849 L 141.39700000000002 88.849 L 137.42100000000002 93.845 L 137.42100000000002 99.456 L 135.841 99.456 L 135.841 93.845 L 131.865 88.849 L 133.72500000000002 88.849 L 136.60600000000002 92.506 L 139.526 88.849 z" stroke-linecap="round" />
</g>
		<g transform="matrix(1 0 0 1 -24.79 23.42)"  >
<path style="stroke: none; stroke-width: 1; stroke-dasharray: none; stroke-linecap: butt; stroke-dashoffset: 0; stroke-linejoin: miter; stroke-miterlimit: 4; fill: rgb(33,25,21); fill-rule: nonzero; opacity: 1;" vector-effect="non-scaling-stroke"  transform=" translate(-255.38, -94.21)" d="M 154.457 88.849 L 156.006 88.849 L 156.006 94.87 C 156.006 95.685 155.945 96.30000000000001 155.825 96.715 C 155.70399999999998 97.131 155.55499999999998 97.476 155.378 97.75200000000001 C 155.201 98.028 154.98299999999998 98.275 154.72699999999998 98.492 C 153.87399999999997 99.21600000000001 152.75999999999996 99.578 151.38299999999998 99.578 C 149.981 99.578 148.856 99.21900000000001 148.00799999999998 98.5 C 147.75099999999998 98.277 147.534 98.028 147.35799999999998 97.752 C 147.17999999999998 97.476 147.03399999999996 97.13799999999999 146.91899999999998 96.738 C 146.80299999999997 96.338 146.74499999999998 95.711 146.74499999999998 94.855 L 146.74499999999998 88.849 L 148.29399999999998 88.849 L 148.29399999999998 94.87 C 148.29399999999998 95.867 148.41 96.56 148.641 96.95 C 148.87199999999999 97.34 149.224 97.653 149.697 97.888 C 150.17000000000002 98.123 150.727 98.241 151.369 98.241 C 152.284 98.241 153.028 98.006 153.603 97.535 C 153.907 97.282 154.124 96.98299999999999 154.258 96.639 C 154.39200000000002 96.295 154.458 95.705 154.458 94.86999999999999 L 154.458 88.84899999999999 L 154.457 88.84899999999999 z" stroke-linecap="round" />
</g>
		<g transform="matrix(1 0 0 1 -13 23.36)"  >
<path style="stroke: none; stroke-width: 1; stroke-dasharray: none; stroke-linecap: butt; stroke-dashoffset: 0; stroke-linejoin: miter; stroke-miterlimit: 4; fill: rgb(33,25,21); fill-rule: nonzero; opacity: 1;" vector-effect="non-scaling-stroke"  transform=" translate(-267.17, -94.15)" d="M 166.693 88.849 L 168.157 88.849 L 168.157 99.456 L 166.83200000000002 99.456 L 159.63600000000002 91.287 L 159.63600000000002 99.456 L 158.187 99.456 L 158.187 88.849 L 159.436 88.849 L 166.69400000000002 97.087 L 166.69400000000002 88.849 L 166.693 88.849 z" stroke-linecap="round" />
</g>
		<g transform="matrix(1 0 0 1 -4.92 23.36)"  >
<path style="stroke: none; stroke-width: 1; stroke-dasharray: none; stroke-linecap: butt; stroke-dashoffset: 0; stroke-linejoin: miter; stroke-miterlimit: 4; fill: rgb(33,25,21); fill-rule: nonzero; opacity: 1;" vector-effect="non-scaling-stroke"  transform=" translate(-275.25, -94.15)" d="M 170.477 88.849 L 172.018 88.849 L 172.018 99.456 L 170.477 99.456 L 170.477 88.849 z" stroke-linecap="round" />
</g>
		<g transform="matrix(1 0 0 1 1.82 23.39)"  >
<path style="stroke: none; stroke-width: 1; stroke-dasharray: none; stroke-linecap: butt; stroke-dashoffset: 0; stroke-linejoin: miter; stroke-miterlimit: 4; fill: rgb(33,25,21); fill-rule: nonzero; opacity: 1;" vector-effect="non-scaling-stroke"  transform=" translate(-281.99, -94.17)" d="M 181.224 88.849 L 182.759 88.849 L 178.208 99.501 L 177.858 99.501 L 173.219 88.849 L 174.76999999999998 88.849 L 178.00799999999998 96.297 L 181.224 88.84899999999999 z" stroke-linecap="round" />
</g>
		<g transform="matrix(1 0 0 1 10.89 23.36)"  >
<path style="stroke: none; stroke-width: 1; stroke-dasharray: none; stroke-linecap: butt; stroke-dashoffset: 0; stroke-linejoin: miter; stroke-miterlimit: 4; fill: rgb(33,25,21); fill-rule: nonzero; opacity: 1;" vector-effect="non-scaling-stroke"  transform=" translate(-291.06, -94.14)" d="M 183.938 88.849 L 190.041 88.849 L 190.041 90.2 L 185.47899999999998 90.2 L 185.47899999999998 93.434 L 189.886 93.434 L 189.886 94.79299999999999 L 185.47899999999998 94.79299999999999 L 185.47899999999998 98.088 L 190.18699999999998 98.088 L 190.18699999999998 99.44 L 183.938 99.44 L 183.938 88.849 z" stroke-linecap="round" />
</g>
		<g transform="matrix(1 0 0 1 19.86 23.36)"  >
<path style="stroke: none; stroke-width: 1; stroke-dasharray: none; stroke-linecap: butt; stroke-dashoffset: 0; stroke-linejoin: miter; stroke-miterlimit: 4; fill: rgb(33,25,21); fill-rule: nonzero; opacity: 1;" vector-effect="non-scaling-stroke"  transform=" translate(-300.02, -94.15)" d="M 191.873 99.456 L 191.873 88.849 L 194.57 88.849 C 195.659 88.849 196.523 89.11500000000001 197.16299999999998 89.646 C 197.80299999999997 90.178 198.12199999999999 90.896 198.12199999999999 91.803 C 198.12199999999999 92.42 197.96599999999998 92.954 197.652 93.405 C 197.339 93.855 196.88899999999998 94.19200000000001 196.303 94.415 C 196.648 94.638 196.984 94.941 197.313 95.32600000000001 C 197.641 95.71100000000001 198.10399999999998 96.38100000000001 198.7 97.33800000000001 C 199.075 97.94000000000001 199.37599999999998 98.39300000000001 199.601 98.697 L 200.171 99.456 L 198.337 99.456 L 197.868 98.757 C 197.852 98.732 197.821 98.68900000000001 197.775 98.628 L 197.475 98.21 L 196.99699999999999 97.43599999999999 L 196.481 96.60799999999999 C 196.16299999999998 96.17199999999998 195.87199999999999 95.826 195.607 95.56799999999998 C 195.342 95.30999999999997 195.103 95.12499999999999 194.889 95.01099999999998 C 194.67600000000002 94.89699999999998 194.317 94.84099999999998 193.81300000000002 94.84099999999998 L 193.412 94.84099999999998 L 193.412 99.45699999999998 L 191.87300000000002 99.45699999999998 L 191.87300000000002 99.45599999999997 z M 193.87699999999998 90.13900000000001 L 193.414 90.13900000000001 L 193.414 93.48800000000001 L 194 93.48800000000001 C 194.781 93.48800000000001 195.316 93.42200000000001 195.606 93.29000000000002 C 195.896 93.15900000000002 196.123 92.96000000000002 196.284 92.69400000000002 C 196.446 92.42800000000001 196.527 92.12600000000002 196.527 91.78600000000002 C 196.527 91.45200000000001 196.43699999999998 91.15000000000002 196.25699999999998 90.87900000000002 C 196.07699999999997 90.60800000000002 195.82399999999998 90.41700000000002 195.498 90.30600000000003 C 195.172 90.19500000000004 194.63199999999998 90.13900000000002 193.87699999999998 90.13900000000002 z" stroke-linecap="round" />
</g>
		<g transform="matrix(1 0 0 1 27.69 23.36)"  >
<path style="stroke: none; stroke-width: 1; stroke-dasharray: none; stroke-linecap: butt; stroke-dashoffset: 0; stroke-linejoin: miter; stroke-miterlimit: 4; fill: rgb(33,25,21); fill-rule: nonzero; opacity: 1;" vector-effect="non-scaling-stroke"  transform=" translate(-307.85, -94.14)" d="M 204.024 95.011 L 202.853 94.31 C 202.118 93.86800000000001 201.595 93.433 201.285 93.005 C 200.975 92.57699999999998 200.819 92.085 200.819 91.52799999999999 C 200.819 90.693 201.113 90.014 201.701 89.493 C 202.289 88.972 203.054 88.711 203.993 88.711 C 204.892 88.711 205.71699999999998 88.96 206.46699999999998 89.457 L 206.46699999999998 91.17999999999999 C 205.69199999999998 90.445 204.85699999999997 90.077 203.963 90.077 C 203.459 90.077 203.046 90.192 202.72299999999998 90.42099999999999 C 202.39899999999997 90.64999999999999 202.23799999999997 90.94399999999999 202.23799999999997 91.30199999999999 C 202.23799999999997 91.61999999999999 202.35699999999997 91.91699999999999 202.59499999999997 92.195 C 202.83299999999997 92.473 203.21599999999998 92.76299999999999 203.74399999999997 93.06899999999999 L 204.92099999999996 93.755 C 206.23399999999995 94.52799999999999 206.89099999999996 95.511 206.89099999999996 96.70599999999999 C 206.89099999999996 97.55599999999998 206.60199999999998 98.24799999999999 206.02499999999995 98.77899999999998 C 205.44699999999995 99.31099999999998 204.69499999999994 99.57599999999998 203.77099999999996 99.57599999999998 C 202.70799999999997 99.57599999999998 201.73899999999995 99.25399999999998 200.86599999999996 98.60999999999999 L 200.86599999999996 96.68099999999998 C 201.69799999999995 97.71999999999998 202.66099999999994 98.23999999999998 203.75599999999994 98.23999999999998 C 204.23799999999994 98.23999999999998 204.64099999999993 98.10799999999998 204.96199999999993 97.84299999999998 C 205.28199999999993 97.57799999999997 205.44299999999993 97.24599999999998 205.44299999999993 96.84799999999997 C 205.44199999999992 96.20299999999997 204.9699999999999 95.59099999999997 204.02399999999992 95.01099999999997 z" stroke-linecap="round" />
</g>
		<g transform="matrix(1 0 0 1 33.21 23.36)"  >
<path style="stroke: none; stroke-width: 1; stroke-dasharray: none; stroke-linecap: butt; stroke-dashoffset: 0; stroke-linejoin: miter; stroke-miterlimit: 4; fill: rgb(33,25,21); fill-rule: nonzero; opacity: 1;" vector-effect="non-scaling-stroke"  transform=" translate(-313.37, -94.15)" d="M 208.602 88.849 L 210.143 88.849 L 210.143 99.456 L 208.602 99.456 L 208.602 88.849 z" stroke-linecap="round" />
</g>
		<g transform="matrix(1 0 0 1 41.33 23.36)"  >
<path style="stroke: none; stroke-width: 1; stroke-dasharray: none; stroke-linecap: butt; stroke-dashoffset: 0; stroke-linejoin: miter; stroke-miterlimit: 4; fill: rgb(33,25,21); fill-rule: nonzero; opacity: 1;" vector-effect="non-scaling-stroke"  transform=" translate(-321.49, -94.14)" d="M 212.547 99.44 L 212.547 88.849 L 216.176 88.849 C 217.64 88.849 218.798 89.065 219.652 89.498 C 220.505 89.93100000000001 221.182 90.56700000000001 221.68499999999997 91.408 C 222.18899999999996 92.248 222.44099999999997 93.164 222.44099999999997 94.157 C 222.44099999999997 94.866 222.30199999999996 95.544 222.02499999999998 96.192 C 221.748 96.83999999999999 221.35199999999998 97.41 220.83799999999997 97.89999999999999 C 220.31399999999996 98.40599999999999 219.70499999999996 98.78899999999999 219.01199999999997 99.04599999999999 C 218.60599999999997 99.20299999999999 218.23399999999998 99.30799999999999 217.89499999999998 99.36099999999999 C 217.55499999999998 99.41399999999999 216.909 99.44099999999999 215.95299999999997 99.44099999999999 L 212.54699999999997 99.44099999999999 L 212.54699999999997 99.43999999999998 z M 216.014 90.2 L 214.08800000000002 90.2 L 214.08800000000002 98.089 L 216.06100000000004 98.089 C 216.83200000000002 98.089 217.42900000000003 98.03699999999999 217.85600000000002 97.93299999999999 C 218.28300000000002 97.829 218.63800000000003 97.698 218.92300000000003 97.538 C 219.20800000000003 97.378 219.46900000000002 97.182 219.70500000000004 96.949 C 220.46500000000003 96.19 220.84500000000003 95.231 220.84500000000003 94.072 C 220.84500000000003 92.933 220.45500000000004 92.004 219.67400000000004 91.285 C 219.38700000000003 91.017 219.05700000000004 90.797 218.68400000000003 90.624 C 218.312 90.452 217.95800000000003 90.338 217.62400000000002 90.283 C 217.29000000000002 90.22800000000001 216.75400000000002 90.2 216.014 90.2 z" stroke-linecap="round" />
</g>
		<g transform="matrix(1 0 0 1 51.54 23.33)"  >
<path style="stroke: none; stroke-width: 1; stroke-dasharray: none; stroke-linecap: butt; stroke-dashoffset: 0; stroke-linejoin: miter; stroke-miterlimit: 4; fill: rgb(33,25,21); fill-rule: nonzero; opacity: 1;" vector-effect="non-scaling-stroke"  transform=" translate(-331.71, -94.12)" d="M 227.062 88.788 L 228.145 88.788 L 232.972 99.45599999999999 L 231.395 99.45599999999999 L 229.96 96.31199999999998 L 225.36700000000002 96.31199999999998 L 224.02200000000002 99.45599999999999 L 222.43800000000002 99.45599999999999 L 227.062 88.78799999999998 z M 229.32600000000002 94.96 L 227.59000000000003 91.118 L 225.97900000000004 94.96 L 229.32600000000005 94.96 z" stroke-linecap="round" />
</g>
		<g transform="matrix(1 0 0 1 62.95 23.36)"  >
<path style="stroke: none; stroke-width: 1; stroke-dasharray: none; stroke-linecap: butt; stroke-dashoffset: 0; stroke-linejoin: miter; stroke-miterlimit: 4; fill: rgb(33,25,21); fill-rule: nonzero; opacity: 1;" vector-effect="non-scaling-stroke"  transform=" translate(-343.11, -94.14)" d="M 234.166 99.44 L 234.166 88.849 L 237.795 88.849 C 239.259 88.849 240.41699999999997 89.065 241.271 89.498 C 242.124 89.93100000000001 242.801 90.56700000000001 243.30399999999997 91.408 C 243.80799999999996 92.248 244.05999999999997 93.164 244.05999999999997 94.157 C 244.05999999999997 94.866 243.92099999999996 95.544 243.64399999999998 96.192 C 243.367 96.83999999999999 242.97099999999998 97.41 242.45699999999997 97.89999999999999 C 241.93299999999996 98.40599999999999 241.32399999999996 98.78899999999999 240.63099999999997 99.04599999999999 C 240.22499999999997 99.20299999999999 239.85299999999998 99.30799999999999 239.51399999999998 99.36099999999999 C 239.17399999999998 99.41399999999999 238.528 99.44099999999999 237.57199999999997 99.44099999999999 L 234.16599999999997 99.44099999999999 L 234.16599999999997 99.43999999999998 z M 237.633 90.2 L 235.70700000000002 90.2 L 235.70700000000002 98.089 L 237.68000000000004 98.089 C 238.45100000000002 98.089 239.04800000000003 98.03699999999999 239.47500000000002 97.93299999999999 C 239.90200000000002 97.829 240.25700000000003 97.698 240.54200000000003 97.538 C 240.82700000000003 97.378 241.08800000000002 97.182 241.32400000000004 96.949 C 242.08400000000003 96.19 242.46400000000003 95.231 242.46400000000003 94.072 C 242.46400000000003 92.933 242.07400000000004 92.004 241.29300000000003 91.285 C 241.00600000000003 91.017 240.67600000000004 90.797 240.30300000000003 90.624 C 239.931 90.452 239.57700000000003 90.338 239.24300000000002 90.283 C 238.90900000000002 90.22800000000001 238.37300000000002 90.2 237.633 90.2 z" stroke-linecap="round" />
</g>
		<g transform="matrix(1 0 0 1 72.94 23.36)"  >
<path style="stroke: none; stroke-width: 1; stroke-dasharray: none; stroke-linecap: butt; stroke-dashoffset: 0; stroke-linejoin: miter; stroke-miterlimit: 4; fill: rgb(33,25,21); fill-rule: nonzero; opacity: 1;" vector-effect="non-scaling-stroke"  transform=" translate(-353.11, -94.14)" d="M 245.985 88.849 L 252.08800000000002 88.849 L 252.08800000000002 90.2 L 247.526 90.2 L 247.526 93.434 L 251.93300000000002 93.434 L 251.93300000000002 94.79299999999999 L 247.526 94.79299999999999 L 247.526 98.088 L 252.234 98.088 L 252.234 99.44 L 245.985 99.44 L 245.985 88.849 z" stroke-linecap="round" />
</g>
		<g transform="matrix(1 0 0 1 80.21 23.36)"  >
<path style="stroke: none; stroke-width: 1; stroke-dasharray: none; stroke-linecap: butt; stroke-dashoffset: 0; stroke-linejoin: miter; stroke-miterlimit: 4; fill: rgb(33,25,21); fill-rule: nonzero; opacity: 1;" vector-effect="non-scaling-stroke"  transform=" translate(-360.37, -94.14)" d="M 256.541 95.011 L 255.37 94.31 C 254.635 93.86800000000001 254.112 93.433 253.802 93.005 C 253.492 92.57699999999998 253.33599999999998 92.085 253.33599999999998 91.52799999999999 C 253.33599999999998 90.693 253.63 90.014 254.218 89.493 C 254.80599999999998 88.972 255.571 88.711 256.51 88.711 C 257.409 88.711 258.234 88.96 258.984 89.457 L 258.984 91.17999999999999 C 258.209 90.445 257.37399999999997 90.077 256.47999999999996 90.077 C 255.97599999999997 90.077 255.56299999999996 90.192 255.23999999999995 90.42099999999999 C 254.91599999999994 90.64999999999999 254.75499999999994 90.94399999999999 254.75499999999994 91.30199999999999 C 254.75499999999994 91.61999999999999 254.87399999999994 91.91699999999999 255.11199999999994 92.195 C 255.34999999999994 92.473 255.73299999999995 92.76299999999999 256.2609999999999 93.06899999999999 L 257.43799999999993 93.755 C 258.7509999999999 94.52799999999999 259.40799999999996 95.511 259.40799999999996 96.70599999999999 C 259.40799999999996 97.55599999999998 259.11899999999997 98.24799999999999 258.542 98.77899999999998 C 257.964 99.31099999999998 257.212 99.57599999999998 256.28799999999995 99.57599999999998 C 255.22499999999997 99.57599999999998 254.25599999999994 99.25399999999998 253.38299999999995 98.60999999999999 L 253.38299999999995 96.68099999999998 C 254.21499999999995 97.71999999999998 255.17799999999994 98.23999999999998 256.27299999999997 98.23999999999998 C 256.755 98.23999999999998 257.15799999999996 98.10799999999998 257.479 97.84299999999998 C 257.799 97.57799999999997 257.96 97.24599999999998 257.96 96.84799999999997 C 257.959 96.20299999999997 257.486 95.59099999999997 256.541 95.01099999999997 z" stroke-linecap="round" />
</g>
</g>
</g>
</svg>